<svg width="16" height="16" viewBox="0 0 16 16" fill="none" xmlns="http://www.w3.org/2000/svg">
<path d="M10.1339 8.0005C10.1339 9.17869 9.17879 10.1338 8.00059 10.1338C6.82239 10.1338 5.86727 9.17869 5.86727 8.0005C5.86727 6.8223 6.82239 5.86718 8.00059 5.86718C9.17879 5.86718 10.1339 6.8223 10.1339 8.0005Z" fill="#666687"/>
<path fill-rule="evenodd" clip-rule="evenodd" d="M12.5196 4.06898C13.8022 4.89731 14.9466 6.05597 15.8286 7.41996C15.9399 7.59253 15.9994 7.79342 16 7.9988C16.0006 8.20417 15.9422 8.40541 15.8319 8.57861C14.9532 9.95394 13.8112 11.1169 12.5292 11.9426C11.1163 12.8523 9.54626 13.3332 7.98928 13.3332C6.39729 13.3332 4.8673 12.8666 3.44564 11.9456C2.18298 11.1286 1.04999 9.96827 0.169664 8.59061C0.0553699 8.41328 -0.003626 8.20598 0.000172543 7.99504C0.00397108 7.7841 0.0703926 7.57906 0.190997 7.40596C1.25932 5.8743 2.48931 4.68464 3.84697 3.87031C5.1783 3.07165 6.57195 2.66666 7.98928 2.66666C9.53393 2.66666 11.1006 3.15165 12.5196 4.06898ZM6.2228 10.6606C6.74903 11.0123 7.36771 11.1999 8.00061 11.1999C8.849 11.199 9.66236 10.8615 10.2623 10.2616C10.8622 9.6617 11.1996 8.84834 11.2006 7.99995C11.2006 7.36706 11.0129 6.74837 10.6613 6.22214C10.3097 5.69591 9.80991 5.28576 9.22519 5.04356C8.64047 4.80136 7.99706 4.73799 7.37632 4.86146C6.75559 4.98493 6.18541 5.2897 5.73788 5.73723C5.29036 6.18475 4.98559 6.75493 4.86212 7.37567C4.73865 7.9964 4.80202 8.63981 5.04422 9.22453C5.28641 9.80925 5.69656 10.309 6.2228 10.6606Z" fill="#666687"/>
</svg>
