<svg width="28" height="28" viewBox="0 0 28 28" fill="none" xmlns="http://www.w3.org/2000/svg">
<path d="M17.9302 22.6129V26C17.9302 26.5523 17.4825 27 16.9302 27H11.3721C10.8198 27 10.3721 26.5523 10.3721 26V22.4978C10.3721 21.7415 9.56486 21.2589 8.89865 21.617L6.33716 22.9938C5.88247 23.2382 5.31649 23.0963 5.03081 22.6664L1.53419 17.404C1.23616 16.9554 1.34685 16.3514 1.78457 16.0377L4.27013 14.2564C4.8619 13.8323 4.8166 12.9382 4.18499 12.5761L1.86918 11.2483C1.38941 10.9733 1.224 10.361 1.49998 9.88177L4.44561 4.76657C4.71552 4.29785 5.30921 4.1287 5.78563 4.38478L8.89865 6.05802C9.56486 6.41611 10.3721 5.93355 10.3721 5.1772V2C10.3721 1.44772 10.8198 1 11.3721 1H16.3256C16.8779 1 17.3256 1.44771 17.3256 2V5.0767C17.3256 5.85553 18.1766 6.33542 18.843 5.93242L21.3166 4.43665C21.7855 4.15315 22.3952 4.29971 22.6839 4.76534L25.8205 9.82302C26.1296 10.3214 25.9454 10.9776 25.422 11.2424L22.7704 12.5838C22.0905 12.9278 22.0297 13.8754 22.6601 14.3034L26.1144 16.6487C26.5934 16.974 26.697 17.6369 26.3399 18.0927L22.7131 22.7225C22.3996 23.1227 21.8356 23.224 21.4024 22.9579L19.4536 21.7608C18.7874 21.3515 17.9302 21.8309 17.9302 22.6129Z" stroke="black" stroke-width="2"/>
<path d="M9.76758 14C9.76758 12.7 13.1536 12.635 13.3955 9.77496L14.6048 17.9C15.6125 16.4916 19.442 15.3 18.8373 13.675" stroke="black" stroke-width="2"/>
</svg>
