<svg width="26" height="26" viewBox="0 0 26 26" fill="none" xmlns="http://www.w3.org/2000/svg">
<g clip-path="url(#clip0_9_6311)">
<path d="M4.33203 21.6675V18.6342C4.33203 18.0203 4.4902 17.4562 4.80653 16.942C5.12286 16.4278 5.54248 16.0349 6.06536 15.7633C7.18481 15.2036 8.32231 14.784 9.47786 14.5045C10.6334 14.225 11.807 14.0849 12.9987 14.0842C13.3598 14.0842 13.7209 14.0979 14.082 14.1253C14.4431 14.1528 14.8043 14.1932 15.1654 14.2467V21.6675H4.33203ZM12.9987 13.0008C11.807 13.0008 10.7869 12.5765 9.93828 11.7279C9.08967 10.8793 8.66536 9.85917 8.66536 8.6675C8.66536 7.47583 9.08967 6.4557 9.93828 5.60708C10.7869 4.75847 11.807 4.33417 12.9987 4.33417C14.1904 4.33417 15.2105 4.75847 16.0591 5.60708C16.9077 6.4557 17.332 7.47583 17.332 8.6675C17.332 9.85917 16.9077 10.8793 16.0591 11.7279C15.2105 12.5765 14.1904 13.0008 12.9987 13.0008ZM19.4987 26.0008V20.5842H17.332V14.0842H23.832L21.6654 18.4175H23.832L19.4987 26.0008Z" fill="black"/>
</g>
<defs>
<clipPath id="clip0_9_6311">
<rect width="26" height="26" fill="white"/>
</clipPath>
</defs>
</svg>
