<svg width="19" height="33" viewBox="0 0 19 33" fill="none" xmlns="http://www.w3.org/2000/svg">
<path d="M18.628 21.674C18.628 22.9073 18.3197 24.0667 17.703 25.152C17.111 26.2373 16.223 27.15 15.039 27.89C13.8797 28.63 12.4983 29.074 10.895 29.222V32.219H8.49V29.222C6.17133 29 4.29667 28.2723 2.866 27.039C1.43533 25.8057 0.72 24.1777 0.72 22.155H5.234C5.308 23.117 5.61633 23.9187 6.159 24.56C6.70167 25.1767 7.47867 25.5713 8.49 25.744V17.604C6.83733 17.1847 5.493 16.7653 4.457 16.346C3.421 15.902 2.533 15.2113 1.793 14.274C1.07767 13.3367 0.72 12.054 0.72 10.426C0.72 8.37867 1.43533 6.689 2.866 5.357C4.29667 4.00033 6.17133 3.211 8.49 2.989V-0.00800145H10.895V2.989C13.0657 3.18633 14.8047 3.877 16.112 5.061C17.444 6.22033 18.1963 7.82367 18.369 9.871H13.855C13.781 9.10633 13.485 8.428 12.967 7.836C12.449 7.21933 11.7583 6.8 10.895 6.578V14.57C12.5477 14.9647 13.892 15.384 14.928 15.828C15.964 16.2473 16.8397 16.9257 17.555 17.863C18.2703 18.7757 18.628 20.046 18.628 21.674ZM5.012 10.204C5.012 11.2153 5.308 12.0047 5.9 12.572C6.51667 13.1393 7.38 13.5957 8.49 13.941V6.467C7.42933 6.59033 6.57833 6.97267 5.937 7.614C5.32033 8.25533 5.012 9.11867 5.012 10.204ZM10.895 25.744C11.9803 25.5713 12.8313 25.1397 13.448 24.449C14.0647 23.7337 14.373 22.8827 14.373 21.896C14.373 20.9093 14.0647 20.1447 13.448 19.602C12.856 19.0347 12.005 18.5783 10.895 18.233V25.744Z" fill="#022C49"/>
</svg>
