<svg width="22" height="22" viewBox="0 0 22 22" fill="none" xmlns="http://www.w3.org/2000/svg">
<path d="M5.13438 0V7.33333M16.8677 0V7.33333M4.40104 11H8.80104M17.601 11H13.201M4.40104 15.4H8.80104M13.201 15.4H17.601M2.20104 3.66667H19.801C20.19 3.66667 20.5631 3.82119 20.8381 4.09624C21.1132 4.3713 21.2677 4.74435 21.2677 5.13333V19.8C21.2677 20.189 21.1132 20.562 20.8381 20.8371C20.5631 21.1121 20.19 21.2667 19.801 21.2667H2.20104C1.81206 21.2667 1.43901 21.1121 1.16395 20.8371C0.888898 20.562 0.734375 20.189 0.734375 19.8V5.13333C0.734375 4.74435 0.888898 4.3713 1.16395 4.09624C1.43901 3.82119 1.81206 3.66667 2.20104 3.66667Z" stroke="black" stroke-width="2.5"/>
</svg>
