<svg width="16" height="16" viewBox="0 0 16 16" fill="none" xmlns="http://www.w3.org/2000/svg">
<path fill-rule="evenodd" clip-rule="evenodd" d="M7.02745 2.50346C7.0735 2.35743 7.16491 2.22989 7.28839 2.13935C7.41187 2.04881 7.561 2 7.71412 2C7.86724 2 8.01637 2.04881 8.13985 2.13935C8.26333 2.22989 8.35474 2.35743 8.40079 2.50346L9.64079 6.31679H13.6408C13.7994 6.3108 13.9556 6.35689 14.0855 6.44802C14.2154 6.53915 14.312 6.67032 14.3603 6.82147C14.4087 6.97263 14.4063 7.13546 14.3534 7.2851C14.3005 7.43473 14.2001 7.56294 14.0675 7.65013L10.8208 10.0035L12.0608 13.8235C12.1098 13.969 12.1111 14.1263 12.0643 14.2726C12.0176 14.4189 11.9253 14.5464 11.8009 14.6365C11.6766 14.7265 11.5267 14.7745 11.3732 14.7734C11.2196 14.7723 11.0704 14.7221 10.9475 14.6301L7.69412 12.2501L4.44745 14.6101C4.32446 14.7021 4.1753 14.7523 4.02175 14.7534C3.8682 14.7545 3.71831 14.7065 3.59397 14.6165C3.46963 14.5264 3.37734 14.3989 3.33059 14.2526C3.28384 14.1063 3.28508 13.949 3.33412 13.8035L4.57412 9.98346L1.32745 7.63013C1.19484 7.54294 1.09442 7.41473 1.04154 7.2651C0.988648 7.11546 0.986202 6.95263 1.03457 6.80147C1.08294 6.65032 1.17947 6.51915 1.3094 6.42802C1.43933 6.33689 1.59553 6.2908 1.75412 6.29679H5.75412L7.02745 2.50346Z" fill="#FBAD39"/>
</svg>
