<svg width="60" height="60" viewBox="0 0 60 60" fill="none" xmlns="http://www.w3.org/2000/svg">
<path d="M18.75 52.5C18.395 52.5 18.0983 52.38 17.86 52.14C17.6217 51.9 17.5017 51.6033 17.5 51.25V43.095C15.125 40.9283 13.2817 38.4933 11.97 35.79C10.6583 33.0867 10.0017 30.3117 10 27.465C10 21.9217 11.9442 17.2083 15.8325 13.325C19.7208 9.44167 24.4433 7.5 30 7.5C34.5033 7.5 38.5733 8.87083 42.21 11.6125C45.845 14.3542 48.2033 17.8958 49.285 22.2375L51.875 32.495C52.0417 33.1283 51.9233 33.7042 51.52 34.2225C51.1167 34.7408 50.5783 35 49.905 35H45V43.4625C45 44.5725 44.6042 45.5225 43.8125 46.3125C43.0225 47.1042 42.0725 47.5 40.9625 47.5H35V51.25C35 51.605 34.88 51.9017 34.64 52.14C34.4 52.3783 34.1033 52.4983 33.75 52.5H26.74L28.1575 38.75H35C35.355 38.75 35.6517 38.63 35.89 38.39C36.13 38.15 36.25 37.8525 36.25 37.4975C36.25 37.1425 36.13 36.8458 35.89 36.6075C35.65 36.3692 35.3533 36.25 35 36.25H28.4175L29.0675 30.23C29.1508 29.2533 29.5458 28.4417 30.2525 27.795C30.9592 27.1483 31.7925 26.8258 32.7525 26.8275H40.1925C40.5458 26.8275 40.8425 26.7075 41.0825 26.4675C41.3225 26.2275 41.4425 25.93 41.4425 25.575C41.4425 25.22 41.3225 24.9233 41.0825 24.685C40.8425 24.4467 40.5458 24.3275 40.1925 24.3275H32.8175C31.1842 24.3275 29.7775 24.8675 28.5975 25.9475C27.4175 27.0275 26.7408 28.3692 26.5675 29.9725L24.2425 52.5H18.75Z" fill="white"/>
</svg>
