<svg width="60" height="60" viewBox="0 0 60 60" fill="none" xmlns="http://www.w3.org/2000/svg">
<path d="M28.9673 47.2044C28.6581 46.8956 28.239 46.7221 27.802 46.7221C27.365 46.7221 26.9459 46.8956 26.6367 47.2044L18.8761 54.9594L17.9105 53.9937L28.3167 43.6015C28.626 43.2925 28.7999 42.8732 28.8001 42.436C28.8002 41.9987 28.6267 41.5793 28.3177 41.27C28.0086 40.9607 27.5893 40.7868 27.1521 40.7866C26.7148 40.7865 26.2954 40.96 25.9861 41.269L15.5827 51.6631L14.6189 50.6994L26.722 38.6065C27.0107 38.2938 27.1672 37.8815 27.1589 37.4559C27.1506 37.0304 26.9781 36.6245 26.6774 36.3233C26.3767 36.022 25.9712 35.8486 25.5457 35.8395C25.1202 35.8303 24.7076 35.986 24.3942 36.274L12.2892 48.3659L11.3255 47.4003L20.8242 37.909C21.1126 37.596 21.2688 37.1836 21.2602 36.7581C21.2515 36.3325 21.0786 35.9268 20.7777 35.6258C20.4768 35.3248 20.0712 35.1518 19.6457 35.1429C19.2201 35.1341 18.8077 35.2901 18.4945 35.5784L6.27422 47.7753C6.26322 46.0341 6.25728 44.2928 6.25641 42.5515C6.25641 39.8872 2.88984 39.4925 2.72203 39.6781C2.55797 39.8712 0.878906 58.3737 0.878906 58.3737H20.1464L21.2198 57.3003L21.2058 57.2881L28.9692 49.5312C29.2784 49.2223 29.4522 48.8032 29.4523 48.3661C29.4525 47.929 29.2791 47.5098 28.9702 47.2006L28.9673 47.2044Z" fill="white"/>
<path d="M37.638 1.84078C27.8955 1.84078 18.9189 9.14953 17.0477 17.198C16.6286 18.9923 16.1599 23.6648 16.1599 23.6648L11.6833 34.9467C11.5721 35.2098 11.5278 35.4964 11.5544 35.7808C11.581 36.0652 11.6776 36.3385 11.8357 36.5765C11.9937 36.8144 12.2083 37.0094 12.4601 37.1442C12.712 37.2789 12.9933 37.3491 13.2789 37.3486H14.8071L17.5361 34.6214C17.9198 34.2371 18.4007 33.9642 18.9274 33.8317C19.454 33.6993 20.0068 33.7123 20.5266 33.8693C21.0465 34.0264 21.514 34.3216 21.8792 34.7235C22.2445 35.1254 22.4937 35.6189 22.6005 36.1514L23.4358 35.317C23.9954 34.7731 24.7449 34.4686 25.5252 34.4682C26.3056 34.4677 27.0554 34.7714 27.6156 35.3147C28.1758 35.8581 28.5022 36.5983 28.5255 37.3783C28.5489 38.1583 28.2674 38.9168 27.7408 39.4927C28.2735 39.5996 28.7672 39.8489 29.1693 40.2142C29.5715 40.5795 29.867 41.047 30.0245 41.567C30.182 42.087 30.1955 42.6399 30.0636 43.1669C29.9317 43.694 29.6593 44.1754 29.2755 44.5598L28.4036 45.4298C28.9624 45.5433 29.4949 45.8142 29.9271 46.2464C30.4904 46.8099 30.8068 47.574 30.8068 48.3708C30.8068 49.1676 30.4904 49.9317 29.9271 50.4952L27.9911 52.4283V58.3767H50.9102V40.1639C55.8996 36.2405 59.1142 30.1411 59.1142 23.2983C59.1142 11.4445 49.5039 1.83984 37.638 1.83984V1.84078ZM21.4483 27.9502C21.1338 27.9505 20.8222 27.8888 20.5315 27.7687C20.2408 27.6486 19.9765 27.4725 19.7539 27.2502C19.3042 26.8015 19.0513 26.1925 19.0507 25.5572C19.05 24.9219 19.3018 24.3124 19.7506 23.8628C20.1993 23.4131 20.8083 23.1602 21.4436 23.1595C22.0789 23.1589 22.6884 23.4107 23.138 23.8594C23.5877 24.3082 23.8407 24.9172 23.8413 25.5525C23.8419 26.1878 23.5901 26.7973 23.1414 27.2469C22.6926 27.6966 22.0836 27.9495 21.4483 27.9502ZM32.6571 33.5311C33.2552 33.5311 33.7502 34.0214 33.7502 34.6177C33.7502 35.2214 33.2552 35.708 32.6571 35.708C32.5103 35.7141 32.3639 35.6904 32.2265 35.6385C32.0891 35.5865 31.9637 35.5073 31.8577 35.4057C31.7517 35.304 31.6674 35.1819 31.6098 35.0468C31.5522 34.9117 31.5225 34.7664 31.5225 34.6195C31.5225 34.4727 31.5522 34.3273 31.6098 34.1922C31.6674 34.0571 31.7517 33.9351 31.8577 33.8334C31.9637 33.7317 32.0891 33.6526 32.2265 33.6006C32.3639 33.5486 32.5103 33.525 32.6571 33.5311ZM32.0064 40.3458C31.8631 40.3455 31.7213 40.3171 31.589 40.262C31.4567 40.2069 31.3365 40.1263 31.2354 40.0248C31.1342 39.9233 31.054 39.8029 30.9994 39.6704C30.9448 39.5379 30.9168 39.396 30.9171 39.2527C30.9173 39.1094 30.9458 38.9675 31.0008 38.8352C31.0559 38.7029 31.1365 38.5827 31.238 38.4816C31.3395 38.3804 31.4599 38.3002 31.5924 38.2456C31.7249 38.191 31.8669 38.163 32.0102 38.1633C32.2996 38.1638 32.577 38.2792 32.7813 38.4842C32.9856 38.6892 33.1001 38.967 33.0996 39.2564C33.0991 39.5458 32.9836 39.8232 32.7786 40.0275C32.5736 40.2318 32.2959 40.3463 32.0064 40.3458ZM34.3352 45.0389C33.9019 45.0026 33.5007 44.7958 33.2198 44.4639C32.9389 44.1321 32.8013 43.7022 32.8371 43.2689C32.8759 42.8371 33.0841 42.4383 33.4161 42.1595C33.7481 41.8807 34.1769 41.7447 34.6089 41.7811C35.5061 41.858 36.1746 42.6511 36.0939 43.5464C36.0767 43.7599 36.0175 43.968 35.9197 44.1586C35.8219 44.3492 35.6874 44.5186 35.5241 44.6571C35.3607 44.7957 35.1716 44.9007 34.9676 44.966C34.7636 45.0314 34.5487 45.0568 34.3352 45.0389ZM35.9064 38.5017C35.6922 38.5017 35.4801 38.4595 35.2822 38.3776C35.0843 38.2956 34.9044 38.1754 34.753 38.0239C34.6015 37.8725 34.4813 37.6926 34.3994 37.4947C34.3174 37.2968 34.2752 37.0847 34.2752 36.8705C34.2752 36.6562 34.3174 36.4441 34.3994 36.2462C34.4813 36.0483 34.6015 35.8685 34.753 35.717C34.9044 35.5655 35.0843 35.4454 35.2822 35.3634C35.4801 35.2814 35.6922 35.2392 35.9064 35.2392C36.8017 35.2392 37.5311 35.9686 37.5311 36.8695C37.5311 37.7705 36.8017 38.5017 35.9064 38.5017ZM38.2249 41.9227C37.6192 41.9227 37.128 41.437 37.128 40.8305C37.1397 40.5484 37.26 40.2817 37.4637 40.0863C37.6674 39.8908 37.9388 39.7817 38.2211 39.7817C38.5034 39.7817 38.7748 39.8908 38.9786 40.0863C39.1823 40.2817 39.3026 40.5484 39.3142 40.8305C39.3142 41.4361 38.8277 41.9227 38.2249 41.9227ZM40.6624 35.5842H40.2808V33.637L40.6577 33.6333C41.827 33.6293 42.9475 33.1638 43.7753 32.3379C44.6031 31.512 45.0713 30.3926 45.078 29.2233C45.0716 28.0542 44.6037 26.9349 43.7763 26.1091C42.9488 25.2832 41.8287 24.8175 40.6596 24.8133L40.2808 24.8114V22.8661H40.6624C44.1733 22.8661 47.0271 25.7161 47.0271 29.2233C47.0271 32.7305 44.1733 35.5842 40.6624 35.5842Z" fill="white"/>
</svg>
