<svg width="60" height="60" viewBox="0 0 60 60" fill="none" xmlns="http://www.w3.org/2000/svg">
<path d="M15.265 17.6318C17.1541 15.6168 19.4364 14.0106 21.9708 12.9126C24.5052 11.8146 27.2379 11.248 30 11.248C32.7621 11.248 35.4948 11.8146 38.0292 12.9126C40.5636 14.0106 42.8459 15.6168 44.735 17.6318L51.25 24.9993C53.75 27.4993 56.81 29.9993 60 29.9993C56.81 29.9993 53.75 32.4993 51.25 34.9993L44.735 42.3668C42.8459 44.3819 40.5636 45.9881 38.0292 47.0861C35.4948 48.1841 32.7621 48.7506 30 48.7506C27.2379 48.7506 24.5052 48.1841 21.9708 47.0861C19.4364 45.9881 17.1541 44.3819 15.265 42.3668L8.75 34.9993C6.25 32.4993 3.19 29.9993 0 29.9993C3.19 29.9993 6.25 27.4993 8.75 24.9993L15.265 17.6318Z" stroke="white" stroke-width="4"/>
<path d="M23.75 30C23.75 28.3424 24.4085 26.7527 25.5806 25.5806C26.7527 24.4085 28.3424 23.75 30 23.75C31.6576 23.75 33.2473 24.4085 34.4194 25.5806C35.5915 26.7527 36.25 28.3424 36.25 30C36.25 31.6576 35.5915 33.2473 34.4194 34.4194C33.2473 35.5915 31.6576 36.25 30 36.25C28.3424 36.25 26.7527 35.5915 25.5806 34.4194C24.4085 33.2473 23.75 31.6576 23.75 30Z" stroke="white" stroke-width="4"/>
</svg>
