<svg width="24" height="25" viewBox="0 0 24 25" fill="none" xmlns="http://www.w3.org/2000/svg">
<path d="M12 16C14.21 16 16 14.21 16 12V6.5C16 4.29 14.21 2.5 12 2.5C9.79 2.5 8 4.29 8 6.5V12C8 14.21 9.79 16 12 16Z" stroke="#0060FF" stroke-width="1.5" stroke-linecap="round" stroke-linejoin="round"/>
<path d="M4.34961 10.1499V11.8499C4.34961 16.0699 7.77961 19.4999 11.9996 19.4999C16.2196 19.4999 19.6496 16.0699 19.6496 11.8499V10.1499" stroke="#0060FF" stroke-width="1.5" stroke-linecap="round" stroke-linejoin="round"/>
<path d="M10.6104 6.93012C11.5104 6.60012 12.4904 6.60012 13.3904 6.93012" stroke="#0060FF" stroke-width="1.5" stroke-linecap="round" stroke-linejoin="round"/>
<path d="M11.2002 9.05007C11.7302 8.91007 12.2802 8.91007 12.8102 9.05007" stroke="#0060FF" stroke-width="1.5" stroke-linecap="round" stroke-linejoin="round"/>
<path d="M12 19.5V22.5" stroke="#0060FF" stroke-width="1.5" stroke-linecap="round" stroke-linejoin="round"/>
</svg>
