<svg width="28" height="28" viewBox="0 0 28 28" fill="none" xmlns="http://www.w3.org/2000/svg">
<path d="M14.619 23.8233H7.24565C3.55898 23.8233 2.33398 21.3733 2.33398 18.9116V9.0883C2.33398 5.40164 3.55898 4.17664 7.24565 4.17664H14.619C18.3057 4.17664 19.5307 5.40164 19.5307 9.0883V18.9116C19.5307 22.5983 18.294 23.8233 14.619 23.8233Z" stroke="white" stroke-width="2.25" stroke-linecap="round" stroke-linejoin="round"/>
<path d="M22.7726 19.95L19.5293 17.675V10.3134L22.7726 8.03836C24.3593 6.93003 25.666 7.6067 25.666 9.55503V18.445C25.666 20.3934 24.3593 21.07 22.7726 19.95Z" stroke="white" stroke-width="2.25" stroke-linecap="round" stroke-linejoin="round"/>
<path d="M13.416 12.8333C14.3825 12.8333 15.166 12.0498 15.166 11.0833C15.166 10.1168 14.3825 9.33325 13.416 9.33325C12.4495 9.33325 11.666 10.1168 11.666 11.0833C11.666 12.0498 12.4495 12.8333 13.416 12.8333Z" stroke="white" stroke-width="2.25" stroke-linecap="round" stroke-linejoin="round"/>
</svg>
