<svg width="40" height="40" viewBox="0 0 48 48" fill="none" xmlns="http://www.w3.org/2000/svg">
<path d="M25.9975 38L25.9975 14.28L34.7175 21.54C35.1259 21.8795 35.6525 22.0428 36.1813 21.994C36.7102 21.9453 37.198 21.6884 37.5375 21.28C37.877 20.8716 38.0403 20.345 37.9915 19.8162C37.9428 19.2873 37.6859 18.7995 37.2775 18.46L25.2775 8.46C25.182 8.39272 25.0818 8.33256 24.9775 8.28C24.8775 8.28 24.8175 8.28 24.7175 8.14C24.4882 8.04935 24.2441 8.00188 23.9975 8C23.7509 8.00188 23.5068 8.04935 23.2775 8.14C23.1775 8.14 23.1175 8.14 23.0175 8.28C22.9132 8.33256 22.8129 8.39272 22.7175 8.46L10.7175 18.46C10.4917 18.648 10.3102 18.8835 10.1857 19.1497C10.0613 19.4159 9.99702 19.7062 9.9975 20C9.99658 20.4673 10.1593 20.9202 10.4575 21.28C10.6254 21.4825 10.8316 21.6499 11.0643 21.7726C11.297 21.8953 11.5516 21.9709 11.8136 21.9951C12.0755 22.0192 12.3396 21.9915 12.5909 21.9134C12.8421 21.8353 13.0754 21.7084 13.2775 21.54L21.9975 14.28L21.9975 38C21.9975 38.5304 22.2082 39.0391 22.5833 39.4142C22.9584 39.7893 23.4671 40 23.9975 40C24.5279 40 25.0366 39.7893 25.4117 39.4142C25.7868 39.0391 25.9975 38.5304 25.9975 38Z" fill="black"/>
</svg>
