<svg width="21" height="20" viewBox="0 0 21 20" fill="none" xmlns="http://www.w3.org/2000/svg">
<path d="M7.53125 3.59375H7.375C7.46094 3.59375 7.53125 3.52344 7.53125 3.4375V3.59375ZM7.53125 3.59375H13.4688V3.4375C13.4688 3.52344 13.5391 3.59375 13.625 3.59375H13.4688V5H14.875V3.4375C14.875 2.74805 14.3145 2.1875 13.625 2.1875H7.375C6.68555 2.1875 6.125 2.74805 6.125 3.4375V5H7.53125V3.59375ZM17.375 5H3.625C3.2793 5 3 5.2793 3 5.625V6.25C3 6.33594 3.07031 6.40625 3.15625 6.40625H4.33594L4.81836 16.6211C4.84961 17.2871 5.40039 17.8125 6.06641 17.8125H14.9336C15.6016 17.8125 16.1504 17.2891 16.1816 16.6211L16.6641 6.40625H17.8438C17.9297 6.40625 18 6.33594 18 6.25V5.625C18 5.2793 17.7207 5 17.375 5ZM14.7832 16.4062H6.2168L5.74414 6.40625H15.2559L14.7832 16.4062Z" fill="#FF0000"/>
</svg>
