<svg width="14" height="8" viewBox="0 0 14 8" fill="none" xmlns="http://www.w3.org/2000/svg">
<path d="M7 8C6.83259 8 6.67061 7.96946 6.51408 7.9084C6.35671 7.84733 6.22571 7.7659 6.12108 7.66412L0.345291 2.0458C0.115097 1.82188 0 1.53689 0 1.19084C0 0.844783 0.115097 0.559796 0.345291 0.335877C0.575485 0.111959 0.86846 0 1.22422 0C1.57997 0 1.87294 0.111959 2.10314 0.335877L7 5.09924L11.8969 0.335877C12.1271 0.111959 12.42 0 12.7758 0C13.1315 0 13.4245 0.111959 13.6547 0.335877C13.8849 0.559796 14 0.844783 14 1.19084C14 1.53689 13.8849 1.82188 13.6547 2.0458L7.87892 7.66412C7.75336 7.78626 7.61734 7.87257 7.47085 7.92305C7.32436 7.97435 7.16741 8 7 8Z" fill="#757575"/>
</svg>
