<svg width="14" height="14" viewBox="0 0 14 14" fill="none" xmlns="http://www.w3.org/2000/svg">
<path d="M13.6668 7.00001C13.6668 3.31801 10.6822 0.333344 7.00016 0.333344C3.31816 0.333344 0.333496 3.31801 0.333496 7.00001C0.333496 8.09534 0.598163 9.15334 1.09683 10.1L0.352829 12.96C0.328085 13.0555 0.32871 13.1559 0.354644 13.2511C0.380578 13.3463 0.430922 13.433 0.500694 13.5028C0.570466 13.5726 0.657247 13.6229 0.752449 13.6489C0.847652 13.6748 0.947977 13.6754 1.0435 13.6507L3.9035 12.906C4.85861 13.4073 5.92148 13.6684 7.00016 13.6667C10.6822 13.6667 13.6668 10.682 13.6668 7.00001ZM7.00016 4.33334C7.35378 4.33334 7.69292 4.47382 7.94297 4.72387C8.19302 4.97392 8.3335 5.31306 8.3335 5.66668V8.33334C8.3335 8.68697 8.19302 9.0261 7.94297 9.27615C7.69292 9.5262 7.35378 9.66668 7.00016 9.66668H5.00016C4.64654 9.66668 4.3074 9.5262 4.05735 9.27615C3.8073 9.0261 3.66683 8.68697 3.66683 8.33334V5.66668C3.66683 5.31306 3.8073 4.97392 4.05735 4.72387C4.3074 4.47382 4.64654 4.33334 5.00016 4.33334H7.00016ZM9.00016 7.77468V6.22534L10.1562 5.13068C10.2271 5.06339 10.3163 5.0184 10.4126 5.00127C10.5088 4.98413 10.608 4.99561 10.6979 5.03428C10.7877 5.07295 10.8642 5.13711 10.9179 5.21882C10.9717 5.30054 11.0003 5.39621 11.0002 5.49401V8.50601C11.0003 8.60381 10.9717 8.69948 10.9179 8.7812C10.8642 8.86291 10.7877 8.92707 10.6979 8.96574C10.608 9.00441 10.5088 9.01589 10.4126 8.99875C10.3163 8.98162 10.2271 8.93663 10.1562 8.86934L9.00016 7.77468Z" fill="white"/>
</svg>
