<svg width="100" height="87" viewBox="0 0 100 87" fill="none" xmlns="http://www.w3.org/2000/svg">
<path d="M51.9107 21.7409L52.044 21.7808L52.0498 21.7741C52.6805 21.8885 53.3053 21.5095 53.4903 20.8831C55.1787 15.1914 60.4979 11.2158 66.4233 11.2158C67.1252 11.2158 67.6932 10.6449 67.6932 9.94256C67.6932 9.24016 67.1251 8.66931 66.4233 8.66931C59.1406 8.66931 53.0212 13.5339 51.0564 20.1578C50.8563 20.8312 51.2385 21.5398 51.9107 21.7409Z" fill="#022C49" stroke="#F9FFF9" stroke-width="0.430917"/>
<path d="M81.187 61.7746H74.8608C74.2787 61.7746 73.8064 61.3008 73.8064 60.7168C73.8064 60.1327 74.2787 59.659 74.8608 59.659H81.187C89.9072 59.659 97.0024 52.5408 97.0024 43.7922C97.0024 35.0436 89.9072 27.9254 81.187 27.9254H81.0348C80.7291 27.9254 80.4383 27.7924 80.238 27.5605C80.0377 27.3285 79.9473 27.021 79.991 26.7173C80.0852 26.0584 80.1326 25.3965 80.1326 24.7521C80.1326 17.17 73.9833 11.0008 66.4258 11.0008C63.4856 11.0008 60.6817 11.9225 58.3168 13.6671C57.7972 14.0502 57.0591 13.8802 56.7586 13.3067C50.0612 0.512082 32.5681 -1.20611 23.4989 9.9241C19.6784 14.6131 18.1772 20.7127 19.3801 26.6576C19.5127 27.3142 19.0118 27.9262 18.3468 27.9262H17.9243C9.20403 27.9262 2.10884 35.0444 2.10884 43.793C2.10884 52.5416 9.20403 59.6598 17.9243 59.6598H24.2504C24.8326 59.6598 25.3048 60.1335 25.3048 60.7176C25.3048 61.3016 24.8326 61.7754 24.2504 61.7754H17.9243C8.04107 61.7754 0 53.7082 0 43.7929C0 34.1557 7.59589 26.2646 17.0966 25.8294C16.2042 19.6617 17.9108 13.4404 21.8661 8.58526C31.576 -3.33219 50.1844 -1.9964 58.0506 11.2924C60.5601 9.71404 63.4316 8.88603 66.4254 8.88603C75.5818 8.88603 82.8374 16.7046 82.2025 25.8393C91.6157 26.3689 99.1108 34.2184 99.1108 43.7921C99.1108 53.7082 91.0702 61.7746 81.187 61.7746Z" fill="#022C49"/>
<path d="M22.8392 60.1207C22.8392 74.8209 34.76 86.7812 49.4142 86.7812C64.0685 86.7812 75.9891 74.8208 75.9891 60.1207C75.9891 45.4205 64.0685 33.4603 49.4142 33.4603C34.7598 33.4603 22.8392 45.4207 22.8392 60.1207ZM25.3794 60.1207C25.3794 46.8243 36.1622 36.0073 49.4142 36.0073C62.6659 36.0073 73.449 46.8241 73.449 60.1207C73.449 73.4171 62.6659 84.2342 49.4142 84.2342C36.1624 84.2342 25.3794 73.4173 25.3794 60.1207Z" fill="#022C49" stroke="#F9FFF9" stroke-width="0.430917"/>
<path d="M48.8978 70.764C48.8978 71.3099 49.3394 71.7539 49.8852 71.7539C50.431 71.7539 50.8726 71.3106 50.8726 70.764V50.6289C50.8726 50.083 50.4311 49.639 49.8852 49.639C49.3393 49.639 48.8978 50.083 48.8978 50.6289V70.764Z" fill="#022C49" stroke="#483EA8" stroke-width="0.430917"/>
<path d="M49.8888 52.0324L55.3656 57.527C55.5581 57.7201 55.8116 57.8171 56.064 57.8172L49.8888 52.0324ZM49.8888 52.0324L44.412 57.5269L49.8888 52.0324ZM43.015 57.527C43.4007 57.9139 44.0265 57.9142 44.4119 57.527L56.0641 57.8172C56.3161 57.8171 56.5699 57.7209 56.7627 57.5267C57.1479 57.14 57.1478 56.5141 56.7625 56.1275L50.5872 49.9322C50.2015 49.5453 49.5756 49.5451 49.1903 49.9322C49.1902 49.9323 49.1902 49.9323 49.1901 49.9324L43.015 56.1275C42.6296 56.5142 42.6296 57.1403 43.015 57.527Z" fill="#022C49" stroke="#483EA8" stroke-width="0.430917"/>
</svg>
